<?xml version="1.0" encoding="UTF-8" standalone="no"?>
<svg
   height="1024"
   width="1024"
   version="1.1"
   id="svg6"
   sodipodi:docname="android-foreground.svg"
   inkscape:version="1.4.2 (ebf0e940d0, 2025-05-08)"
   xmlns:inkscape="http://www.inkscape.org/namespaces/inkscape"
   xmlns:sodipodi="http://sodipodi.sourceforge.net/DTD/sodipodi-0.dtd"
   xmlns="http://www.w3.org/2000/svg"
   xmlns:svg="http://www.w3.org/2000/svg">
  <defs
     id="defs6" />
  <sodipodi:namedview
     id="namedview6"
     pagecolor="#ffffff"
     bordercolor="#000000"
     borderopacity="0.25"
     inkscape:showpageshadow="2"
     inkscape:pageopacity="0.0"
     inkscape:pagecheckerboard="0"
     inkscape:deskcolor="#d1d1d1"
     inkscape:zoom="0.55173664"
     inkscape:cx="635.26686"
     inkscape:cy="613.51735"
     inkscape:window-width="1463"
     inkscape:window-height="938"
     inkscape:window-x="0"
     inkscape:window-y="0"
     inkscape:window-maximized="0"
     inkscape:current-layer="svg6" />
  <path
     style="baseline-shift:baseline;display:inline;overflow:visible;vector-effect:none;fill:#ffffff;enable-background:accumulate;stop-color:#000000;stop-opacity:1;opacity:1"
     d="m 618.23437,276.54102 c -3.24452,-0.0299 -6.40474,0.0991 -9.44531,0.38867 l -6.40429,0.60937 -6.24024,1.56055 c -2.10591,0.52648 -4.43933,1.21282 -6.67969,1.83008 -20.42462,2.6296 -41.54856,4.56116 -63.59179,5.55273 H 421.12109 c -2.79703,-0.45282 -5.9114,-0.90234 -13.8457,-0.90234 h -6.7168 l -6.63281,1.04687 c 3.06039,-0.48322 1.90079,-2.42103 -20.59766,2.85157 -11.24922,2.63629 -32.15958,9.63677 -49.37695,29.46289 -0.36598,0.42143 -0.65058,0.87985 -1.00586,1.30664 l -0.1289,0.01 0.0195,0.13477 C 306.57,340.02297 301.42969,365.058 301.42969,380.25 c 0,21.65204 3.08718,23.83781 4.41797,28.17383 1.33078,4.33601 2.35321,7.03296 3.23046,9.37695 1.30549,3.48819 1.65354,4.38324 1.88672,4.94531 -0.14828,-1.46214 -0.15497,-4.29926 -0.25195,-6.30273 l 0.45508,3.34375 c 0.26062,1.91118 0.52062,3.76484 0.78125,5.66992 l 0.59765,1.78711 1.1211,2.72656 c 0.22782,0.55328 -0.34708,1.35393 -1.07031,0.1836 1.3425,9.78636 2.68634,19.57863 4.02929,29.20312 l 0.23633,1.69531 0.30469,1.6836 c 2.60553,14.43069 5.04978,27.04072 12.5664,43.95312 3.75832,8.45621 8.5185,18.54554 20.62891,31.00196 9.38271,9.65078 26.49787,21.04424 46.94922,25.72656 -5.62976,5.29451 -10.99881,11.45406 -15.71875,18.87109 l -0.3457,0.54297 -0.33789,0.55078 c -15.24506,24.77344 -15.95013,77.19316 1.67773,103.63477 18.85134,28.27698 45.20217,37.83582 62.41602,41.74804 17.21384,3.91223 30.33019,3.73818 43.37109,3.01368 l 0.0449,-0.002 0.0449,-0.004 c 14.94407,-0.84588 28.19811,-2.02043 40.69141,-3.51953 3.76939,-0.0581 7.17061,0.003 7.84766,0.0703 l 0.38476,0.0371 0.38281,0.0352 c 15.21844,1.38348 27.34074,6.01889 59.25977,-6.25781 l 1.50781,-0.57812 1.48242,-0.63672 c 29.53576,-12.65819 61.36719,-58.82036 61.36719,-92.68164 0,-20.2237 -7.02603,-54.0955 -34.7539,-77.44532 -4.18877,-3.52738 -8.4898,-6.39815 -12.82227,-8.97265 -0.005,-1.43945 -0.0135,-2.70392 -0.0195,-4.10156 1.81112,0.13634 3.7506,0.37109 5.37109,0.37109 16.02963,0 39.08256,-1.85492 63.51563,-20.53906 24.43307,-18.68414 37.4414,-54.2316 37.4414,-76.80274 0,-11.55302 -0.92715,-16.56244 -1.92773,-22.82226 0.82432,-6.64024 1.79283,-12.73419 2.9375,-17.74219 l -0.17578,0.75391 c 6.63946,-27.8853 -7.58594,-80.08209 -35.74024,-102.13086 -18.76732,-14.39026 -44.81105,-22.06533 -66.98047,-22.26953 z m -195.80468,10.13476 c 1.41215,0.12505 1.70456,0.25076 1.46679,0.2168 -0.47823,-0.0683 -1.014,-0.14331 -1.46679,-0.2168 z m -22.73633,169.68945 c 0.47377,0.0677 1.00447,0.14206 1.45312,0.21485 -1.38898,-0.12345 -1.68834,-0.24424 -1.45312,-0.21485 z m 214.25781,137.08789 c 0.66581,4.96612 0,8.04747 0,9.49024 z"
     id="path4" />
  <path
     style="baseline-shift:baseline;display:inline;overflow:visible;vector-effect:none;fill:#ff4c4c;enable-background:accumulate;stop-color:#000000;stop-opacity:1;opacity:1"
     d="m 618.42969,319.32812 c -2.00346,-0.0102 -3.97112,0.0754 -5.88672,0.25782 l -3.20117,0.30468 -3.1211,0.78125 c -2.76298,0.69075 -5.43578,1.40328 -8.31054,2.375 -22.87794,3.0471 -46.53128,5.19941 -71.09961,6.28516 h -63.81836 -46.98438 c 3.85183,0 2.79613,0.15866 1.53516,-0.0215 -2.95571,-0.42225 -4.9133,-0.88086 -10.57227,-0.88086 h -3.35742 l -3.31641,0.52343 c -10.24524,1.61768 -21.66143,4.51014 -33.25585,13.96875 -11.59443,9.45862 -20.03516,27.70344 -20.03516,42.31055 0,12.22144 2.42241,18.28088 4.90625,25.73242 l 0.4668,1.39844 0.56054,1.36328 c 0.072,0.17494 0.0625,0.30835 0.11914,0.48242 -0.0359,-0.49433 -0.0394,-1.51989 -0.0664,-2.19921 l 0.27929,2.04687 c 1.81302,13.29543 3.62604,26.44131 5.43946,39.4375 l 0.11718,0.84766 0.15235,0.84179 c 2.28164,12.63679 4.59552,23.00692 9.55859,34.17383 2.48154,5.58346 5.49298,11.6449 12.20703,18.55078 6.71406,6.90589 19.8627,14.99805 34.8086,14.99805 8.07244,0 18.02106,-0.44624 30.26562,-7.79297 4.2095,-2.52569 8.18478,-6.36018 11.67578,-10.79101 0.0827,3.80223 0.10591,7.45908 0.21485,11.32617 v 0.0527 l 0.002,0.0527 c 0.8469,27.66548 0.78724,48.69349 0.0957,62.79296 -1.74191,0.41578 -3.46967,0.77969 -5.24414,1.31446 -11.59676,3.49491 -25.74772,10.65491 -35.16601,25.45508 l -0.17383,0.27343 -0.16797,0.27344 c -8.82738,14.34452 -9.18069,42.43698 0.83789,57.46484 10.32926,15.49389 25.19928,21.23502 36.29102,23.75586 11.09174,2.52085 20.92518,2.60183 31.51172,2.01368 h 0.0234 l 0.0215,-0.002 c 15.45738,-0.87494 28.84075,-2.06369 40.83203,-3.58593 6.15896,-0.1896 11.15414,-0.0438 14.38476,0.27929 l 0.19336,0.0195 0.19141,0.0176 c 12.57896,1.14353 22.1026,3.31103 40.01953,-3.58008 l 0.75391,-0.29101 0.74218,-0.31836 c 17.93041,-7.68451 35.42774,-33.09799 35.42774,-53.3418 0,-12.89786 -4.22883,-31.83126 -19.52344,-44.71094 -8.88561,-7.48262 -18.74468,-10.86431 -27.91406,-12.12304 v -1.44727 c 0,-29.77597 -0.1133,-53.13326 -0.34375,-70.26367 -0.19376,-14.40297 -0.30672,-22.42464 -0.97852,-30.60352 11.5446,18.69656 34.85565,26.20118 49.33203,26.20118 10.57494,0 24.02293,-1.41735 37.51954,-11.73829 13.4966,-10.32093 20.64062,-29.56333 20.64062,-42.80664 0,-7.75931 -0.80232,-12.14635 -1.83008,-18.99804 l -0.082,-0.54688 -0.0957,-0.54297 c -0.22238,-1.26017 -0.26086,-2.03403 -0.2832,-2.41406 1.0468,-10.20462 2.51723,-19.46135 4.37695,-27.59766 l -0.0879,0.37696 c 4.09481,-17.19816 -3.91368,-46.01101 -20.44727,-58.52149 -11.31244,-8.61745 -26.51864,-13.16088 -40.14062,-13.23047 z M 484.8125,575.54297 c 0.41657,-0.0722 0.17244,0.0139 0.43945,0.004 v 0.0352 c -0.20957,0.001 -0.41393,0.012 -0.62304,0.0137 0.0465,-0.009 0.13888,-0.045 0.18359,-0.0527 z m 86.03711,24.5625 c 0.54926,2.47729 0,3.37276 0,2.88867 z"
     id="path5" />
  <path
     d="m 637.04813,381.2191 q -3.61427,15.81254 -5.42143,34.33581 -0.45179,4.96965 0.90357,12.65003 1.35535,9.03574 1.35535,12.65003 0,11.74646 -15.36073,11.74646 -9.93932,0 -13.10183,-5.87323 -0.4518,-9.93931 0.45179,-27.10721 0.90356,-20.33041 0.90356,-27.10722 -0.45176,0 -1.35535,-0.90357 -42.01619,1.80715 -79.0627,5.42144 -0.90359,5.87323 0,14.45718 l 1.80712,16.26433 q -1.80712,14.0054 -1.80712,41.5644 1.35536,11.74646 1.35536,100.7485 v 32.98044 q 0,7.68038 2.25892,10.84289 h 28.0108 q 17.16789,-2.25895 17.16789,14.45717 0,9.93933 -9.48751,14.00541 -5.87325,2.25895 -20.78222,0.90359 -9.03574,-0.90359 -21.23399,-0.4518 -16.71612,2.25892 -40.66082,3.61428 -24.39647,1.35539 -29.81793,-6.77679 -3.61429,-5.42143 0,-11.29469 6.32502,-9.9393 32.98044,-9.9393 14.0054,0 14.0054,-7.68038 0,-4.06607 -0.45179,-7.68038 0,-11.29469 0.45179,-19.87863 1.35536,-24.3965 0,-68.67161 -1.80715,-64.15375 1.35536,-115.20567 l -1.35536,-1.35536 q -14.0054,0.90357 -52.40728,-0.45179 -1.80715,0 -27.559,1.80715 6.32501,43.37154 7.22859,61.89481 0,0 -0.90358,12.19825 -0.45178,6.7768 -11.29467,6.7768 -8.58395,0 -14.45718,-32.52866 -2.71073,-19.42684 -5.42145,-39.30546 0,-3.16251 -3.16251,-10.84289 -2.71072,-8.13217 -2.71072,-12.19825 0,-11.29467 17.16791,-14.00539 1.35536,0 4.51787,0.45178 3.1625,0.45179 4.51786,0.45179 h 46.98585 q 65.05733,0 65.05733,0 41.56438,-1.80715 80.41805,-7.22859 2.71075,-1.35536 8.13217,-2.71072 9.48754,-0.90358 16.26433,4.51787 6.77681,4.96965 4.51786,14.45718 z"
     fill="#ffffff"
     id="path6"
     style="stroke-width:3.03484" />
</svg>
