<svg xmlns="http://www.w3.org/2000/svg" width="600" height="200" viewBox="0 0 600 200.00001"><g transform="translate(0 -922.51965)"><rect style="marker:none" width="596.22046" height="196.22047" x="1.8897638" y="924.40942" rx="32" ry="32" stroke="#888a85" stroke-width="3.77952766"/><g aria-label="FLATHUB" style="line-height:125%;-inkscape-font-specification:'Overpass, Bold';font-variant-ligatures:normal;font-variant-caps:normal;font-variant-numeric:normal;font-feature-settings:normal;text-indent:0;text-align:start;text-decoration-line:none;text-transform:none;marker:none" color="#000" font-weight="700" font-size="64.27679443" font-family="Overpass" letter-spacing="0" word-spacing="0" fill="#fff"><path d="M252.98791 1069.2683h7.71322v-19.6044h13.62668v-7.2633h-13.62668v-10.8628h21.33989v-7.2632h-29.05311zM289.39469 1069.2683h29.56732v-7.3918H297.1079v-37.6019h-7.71321zM356.00553 1069.2683h8.09888l-16.71197-44.9937h-7.64894l-16.77624 44.9937h8.16315l3.53523-9.8343h17.80467zm-5.97774-16.7762h-12.91963l5.01359-13.4982c.44993-1.2855 1.0927-3.2138 1.47836-4.5636.32139 1.3498.96415 3.2781 1.47837 4.5636zM383.46076 1031.6664h12.79108v-7.3918h-33.29538v7.3918h12.79109v37.6019h7.71321zM431.64627 1069.2683h7.64894v-44.9937h-7.64894v18.1903h-19.6687v-18.1903h-7.71322v44.9937h7.71322v-19.5401h19.6687zM467.4384 1070.0396c9.51296 0 17.54756-4.6279 17.54756-17.9332v-27.8318h-7.71321v27.8318c0 8.2274-4.04944 10.5414-9.83435 10.5414-5.84919 0-9.83435-2.314-9.83435-10.5414v-27.8318h-7.71322v27.8318c0 13.4981 8.29171 17.9332 17.54757 17.9332zM495.53238 1024.2746v44.9937h19.34731c11.11989 0 15.04077-7.0704 15.04077-13.3053 0-4.0494-2.05686-8.4845-7.39183-10.4128 3.98516-1.9283 5.78491-5.4636 5.78491-9.2559 0-6.1063-3.53522-12.0197-14.398-12.0197zm17.35473 18.126h-9.64152v-10.9913h10.86278c5.33497 0 6.42768 2.8282 6.42768 5.4635 0 3.2781-2.5068 5.5278-7.64894 5.5278zm2.44252 19.733h-12.08404v-12.5983h10.22001c7.00617 0 8.61309 3.2782 8.61309 6.6205 0 2.7639-1.47836 5.9778-6.74906 5.9778z"/></g><g color="#000" stroke-linecap="square"><path d="m856.01397 830.22631-66.76365 43.44891v34.93973l33.38182 21.72315 33.37926-21.72315v-.005l.003.003 33.38183 21.72574 33.37925-21.72315v-34.93979z" style="isolation:auto;mix-blend-mode:normal;solid-color:#000;solid-opacity:1;marker:none" overflow="visible" stroke="#fff" stroke-width="24" transform="translate(-733.58433 141.64633)"/><g transform="matrix(.50222 0 0 .50637 -303.95228 574.55094)" stroke-width=".75573969" stroke="#000" stroke-linejoin="round"><rect style="isolation:auto;mix-blend-mode:normal;solid-color:#000;solid-opacity:1;marker:none" width="79.110413" height="79.110413" x="1289.9076" y="279.42584" rx="0" ry="0" transform="scale(1.18821 .76691) rotate(45)" overflow="visible" stroke-width="3.16674447"/><rect transform="scale(1.18821 .76691) rotate(45)" ry="0" rx="0" y="215.8064" x="1226.2882" height="79.110413" width="79.110413" style="isolation:auto;mix-blend-mode:normal;solid-color:#000;solid-opacity:1;marker:none" overflow="visible" fill="#fff" stroke-width="3.16674447"/><path style="isolation:auto;mix-blend-mode:normal;solid-color:#000;solid-opacity:1;marker:none" d="m915.46811 824.92983-.00005 68.99997-66.46803 42.90055.00005-68.99997z" overflow="visible" stroke-width="3.02295876"/><path d="m783.00003 824.92983.00005 68.99997 66.46803 42.90055-.00005-68.99997z" style="isolation:auto;mix-blend-mode:normal;solid-color:#000;solid-opacity:1;marker:none" overflow="visible" fill="#fff" stroke-width="3.02295876"/></g><g transform="matrix(.50222 0 0 .50637 -270.57065 596.27482)" stroke-width=".75573969" stroke="#000" stroke-linejoin="round"><rect transform="scale(1.18821 .76691) rotate(45)" ry="0" rx="0" y="279.42584" x="1289.9076" height="79.110413" width="79.110413" style="isolation:auto;mix-blend-mode:normal;solid-color:#000;solid-opacity:1;marker:none" overflow="visible" stroke-width="3.16674447"/><rect style="isolation:auto;mix-blend-mode:normal;solid-color:#000;solid-opacity:1;marker:none" width="79.110413" height="79.110413" x="1226.2882" y="215.8064" rx="0" ry="0" transform="scale(1.18821 .76691) rotate(45)" overflow="visible" fill="#fff" stroke-width="3.16674447"/><path d="m915.46811 824.92983-.00005 68.99997-66.46803 42.90055.00005-68.99997z" style="isolation:auto;mix-blend-mode:normal;solid-color:#000;solid-opacity:1;marker:none" overflow="visible" stroke-width="3.02295876"/><path style="isolation:auto;mix-blend-mode:normal;solid-color:#000;solid-opacity:1;marker:none" d="m783.00003 824.92983.00005 68.99997 66.46803 42.90055-.00005-68.99997z" overflow="visible" fill="#fff" stroke-width="3.02295876"/></g><g transform="matrix(.50222 0 0 .50637 -337.33391 596.27482)" stroke-width=".75573969" stroke="#000" stroke-linejoin="round"><rect style="isolation:auto;mix-blend-mode:normal;solid-color:#000;solid-opacity:1;marker:none" width="79.110413" height="79.110413" x="1289.9076" y="279.42584" rx="0" ry="0" transform="scale(1.18821 .76691) rotate(45)" overflow="visible" stroke-width="3.16674447"/><rect transform="scale(1.18821 .76691) rotate(45)" ry="0" rx="0" y="215.8064" x="1226.2882" height="79.110413" width="79.110413" style="isolation:auto;mix-blend-mode:normal;solid-color:#000;solid-opacity:1;marker:none" overflow="visible" fill="#fff" stroke-width="3.16674447"/><path style="isolation:auto;mix-blend-mode:normal;solid-color:#000;solid-opacity:1;marker:none" d="m915.46811 824.92983-.00005 68.99997-66.46803 42.90055.00005-68.99997z" overflow="visible" stroke-width="3.02295876"/><path d="m783.00003 824.92983.00005 68.99997 66.46803 42.90055-.00005-68.99997z" style="isolation:auto;mix-blend-mode:normal;solid-color:#000;solid-opacity:1;marker:none" overflow="visible" fill="#fff" stroke-width="3.02295876"/></g></g><g aria-label="Download On" style="line-height:1.25;-inkscape-font-specification:'Overpass, Light';font-variant-ligatures:normal;font-variant-caps:normal;font-variant-numeric:normal;font-feature-settings:normal;text-align:start" font-weight="300" font-size="36.19591141" font-family="Overpass" letter-spacing="6.63992262" word-spacing="0" fill="#fff" stroke-width=".99999988"><path d="M253.10501 968.74764v25.33714h6.58766c9.12137 0 11.61889-6.84103 11.61889-12.66857 0-6.26189-2.89568-12.66857-11.47411-12.66857zm6.76864 23.0568h-4.23492v-20.77646h4.63307c6.00853 0 8.39746 5.13982 8.39746 10.38823 0 4.92264-1.99078 10.38823-8.79561 10.38823zM290.39326 994.51913c4.74166 0 7.9269-3.61959 7.9269-9.70051 0-6.1533-3.18524-9.6643-7.9269-9.6643-4.74166 0-7.9269 3.61959-7.9269 9.7005 0 6.15331 3.18524 9.66431 7.9269 9.66431zm0-2.28034c-3.43861 0-5.2846-2.78709-5.2846-7.38397 0-4.81406 1.84599-7.42016 5.2846-7.42016s5.2846 2.78708 5.2846 7.38396c0 4.63308-1.91838 7.42017-5.2846 7.42017zM312.98936 994.08478h2.31653l3.6196-11.22073c.18098-.57914.47054-1.48404.76011-2.46133.28957.97729.61533 1.91839.79631 2.49752l3.69198 11.18454h2.28035l4.56068-18.49611h-2.53371l-2.93187 13.32009c-.14479.72392-.32577 1.44784-.47055 2.20795-.21717-.76011-.39815-1.48403-.61533-2.20795l-3.87296-13.32009h-1.73741l-3.87296 13.32009c-.18098.68772-.36196 1.30306-.54294 2.02697l-.43435-2.02697-3.04045-13.32009h-2.53372zM353.73035 994.08478h2.53371v-10.24345c0-6.1171-2.09936-8.68701-6.62385-8.68701-1.95458 0-3.61959.79631-4.77786 2.46132v-2.02697h-2.53371v18.49611h2.53371v-11.36552c0-4.01774 1.95458-5.2846 4.56069-5.2846 2.46132 0 4.30731 1.44784 4.30731 5.35699zM369.43905 994.08478h2.53371v-26.13345l-2.53371 1.23066zM391.9605 994.51913c4.74166 0 7.9269-3.61959 7.9269-9.70051 0-6.1533-3.18524-9.6643-7.9269-9.6643-4.74167 0-7.92691 3.61959-7.92691 9.7005 0 6.15331 3.18524 9.66431 7.92691 9.66431zm0-2.28034c-3.43862 0-5.28461-2.78709-5.28461-7.38397 0-4.81406 1.84599-7.42016 5.28461-7.42016 3.43861 0 5.2846 2.78708 5.2846 7.38396 0 4.63308-1.91838 7.42017-5.2846 7.42017zM422.4473 994.08478h2.35273v-12.52379c0-5.2484-3.511-6.40667-6.15331-6.40667-2.53371 0-4.99503 1.08587-6.47906 2.02697l.72391 2.17175c1.37545-.94109 3.65579-1.99077 5.50178-1.99077 2.06317 0 4.05395.79631 4.05395 4.52449v1.55642c-1.8098-.97729-3.43862-1.30305-4.99504-1.30305-3.511 0-6.73244 1.84599-6.73244 6.11711 0 4.16253 2.56991 6.26189 6.29809 6.26189 1.99077 0 3.94535-.9049 5.42939-2.24415zm-5.17602-1.7736c-2.6785 0-4.19873-1.62882-4.19873-4.05394 0-2.6785 2.13556-3.90916 4.63308-3.90916 1.59262 0 3.5472.72392 4.74167 1.52023v3.58339c-1.12208 1.37545-2.93187 2.85948-5.17602 2.85948zM443.62102 994.51913c2.31654 0 3.80057-.9049 4.92264-2.02697v1.59262h2.53371v-26.13345l-2.53371 1.26686v7.67353c-1.12207-.9049-2.6423-1.7374-4.92264-1.7374-4.70547 0-7.63734 3.58339-7.63734 9.6643 0 5.89994 2.89567 9.70051 7.63734 9.70051zm.28956-2.28034c-3.25763 0-5.2846-3.29383-5.2846-7.42017 0-4.74166 1.88219-7.38396 5.2846-7.38396 2.35274 0 3.87297 1.44784 4.63308 2.6785v9.22995c-1.01348 1.84599-2.78708 2.89568-4.63308 2.89568zM489.0055 994.51913c7.81832 0 10.49682-6.84103 10.49682-13.10292 0-6.26189-2.6785-13.10292-10.49682-13.10292-7.81831 0-10.49681 6.84103-10.49681 13.10292 0 6.26189 2.6785 13.10292 10.49681 13.10292zm0-2.28034c-5.82754 0-7.85451-5.3208-7.85451-10.82258 0-5.03123 2.02697-10.82258 7.85451-10.82258 5.82755 0 7.85452 5.3208 7.85452 10.82258 0 5.03123-2.02697 10.82258-7.85452 10.82258zM523.36073 994.08478h2.53371v-10.24345c0-6.1171-2.09936-8.68701-6.62385-8.68701-1.95458 0-3.61959.79631-4.77786 2.46132v-2.02697h-2.53371v18.49611h2.53371v-11.36552c0-4.01774 1.95458-5.2846 4.56069-5.2846 2.46132 0 4.30731 1.44784 4.30731 5.35699z" style="-inkscape-font-specification:'Overpass, Light';font-variant-ligatures:normal;font-variant-caps:normal;font-variant-numeric:normal;font-feature-settings:normal;text-align:start"/></g></g></svg>