<?xml version="1.0" encoding="UTF-8" standalone="no"?>
<svg
   width="64"
   height="64"
   version="1.1"
   id="svg10"
   sodipodi:docname="flathub.svg"
   inkscape:version="1.3.2 (091e20ef0f, 2023-11-25)"
   xmlns:inkscape="http://www.inkscape.org/namespaces/inkscape"
   xmlns:sodipodi="http://sodipodi.sourceforge.net/DTD/sodipodi-0.dtd"
   xmlns="http://www.w3.org/2000/svg"
   xmlns:svg="http://www.w3.org/2000/svg">
  <defs
     id="defs10" />
  <sodipodi:namedview
     id="namedview10"
     pagecolor="#ffffff"
     bordercolor="#000000"
     borderopacity="0.25"
     inkscape:showpageshadow="2"
     inkscape:pageopacity="0.0"
     inkscape:pagecheckerboard="0"
     inkscape:deskcolor="#d1d1d1"
     inkscape:zoom="7.0968982"
     inkscape:cx="54.319505"
     inkscape:cy="24.4473"
     inkscape:window-width="1920"
     inkscape:window-height="1008"
     inkscape:window-x="1366"
     inkscape:window-y="0"
     inkscape:window-maximized="1"
     inkscape:current-layer="svg10" />
  <g
     id="g10"
     transform="matrix(1.0187556,0,0,1.0187556,0.62750272,1.8885168)"
     style="fill:#ffffff;fill-opacity:1">
    <circle
       cx="14.245695"
       cy="14.208976"
       r="14.20438"
       stroke-width="1.00001"
       id="circle8"
       style="fill:#ffffff;fill-opacity:1" />
    <rect
       x="1.780476"
       y="34.12035"
       width="24.922581"
       height="24.922581"
       rx="6.6459699"
       ry="6.6459699"
       stroke-width="1.00001"
       id="rect8"
       style="fill:#ffffff;fill-opacity:1" />
    <path
       d="M 59.529402,10.821231 56.981889,9.3504251 42.321451,0.88623111 A 4.03774,4.03774 0 0 0 36.264735,4.3830532 l 3.28e-4,19.8698088 a 4.03774,4.03774 0 0 0 6.056604,3.496777 l 17.20791,-9.934644 a 4.03774,4.03774 0 0 0 -3.1e-5,-6.993682 z"
       stroke-width="1.00697"
       id="path8"
       style="fill:#ffffff;fill-opacity:1" />
    <path
       d="m 58.674609,46.64836 c 0,1.380687 -1.111524,2.492258 -2.492258,2.492258 H 36.244285 c -1.380687,0 -2.492258,-1.11154 -2.492258,-2.492258 0,-1.380719 1.111539,-2.492259 2.492258,-2.492259 h 19.938066 c 1.380687,0 2.492258,1.111524 2.492258,2.492259 z M 46.213318,34.187069 c 1.380687,0 2.492258,1.111539 2.492258,2.492258 v 19.938065 c 0,1.380688 -1.111539,2.492258 -2.492258,2.492258 -1.380703,0 -2.492258,-1.111539 -2.492258,-2.492258 V 36.679327 c 0,-1.380703 1.111539,-2.492258 2.492258,-2.492258 z"
       stroke-width="10.0001"
       id="path9"
       style="fill:#ffffff;fill-opacity:1" />
  </g>
</svg>
