<?xml version="1.0" encoding="utf-8"?>
<!-- Generator: Adobe Illustrator 23.0.1, SVG Export Plug-In . SVG Version: 6.00 Build 0)  -->
<svg version="1.1" id="Layer_1" xmlns="http://www.w3.org/2000/svg" xmlns:xlink="http://www.w3.org/1999/xlink" x="0px" y="0px"
	 viewBox="0 0 182 56" style="enable-background:new 0 0 182 56;" xml:space="preserve">
<style type="text/css">
	.st0{fill-rule:evenodd;clip-rule:evenodd;fill:#252525;stroke:#CDCDCD;}
	.st1{fill:#82BEA0;}
	.st2{fill:#FA6441;}
	.st3{fill:#FFFFFF;}
	.st4{font-family:'Ubuntu';}
	.st5{font-size:12px;}
	.st6{font-size:24px;}
</style>
<title>[EN]-snap-store-black</title>
<desc>Created with Sketch.</desc>
<g>
	<g id="Black-badge">
		<path id="Rectangle-path" class="st0" d="M2,0h178c1.1,0,2,0.9,2,2v52c0,1.1-0.9,2-2,2H2c-1.1,0-2-0.9-2-2V2C0,0.9,0.9,0,2,0z"/>
		<g id="logo" transform="translate(8.000000, 11.000000)">
			<path id="body" class="st1" d="M19,17.8V7.3l7.2,3.2L19,17.8z M5.2,31.6L14.1,15l3.9,3.9L5.2,31.6z M0.2,0.2l18.2,6.6v11.6
				L0.2,0.2z"/>
			<polygon id="head" class="st2" points="29.9,6.8 19.4,6.8 32.9,12.9 			"/>
		</g>
		<text transform="matrix(1 0 0 1 50 17)" class="st3 st4 st5">Get it from the</text>
		<text transform="matrix(1 0 0 1 50 41)" class="st3 st4 st6">Snap Store</text>
	</g>
</g>
</svg>
